HIERARCHY
ROOT Hips
{
  OFFSET -4.35178 90.3298 111.633
  CHANNELS 6 Xposition Yposition Zposition Zrotation Xrotation Yrotation
  JOINT LeftUpLeg
  {
    OFFSET 0.103456 1.85784 10.5485
    CHANNELS 6 Xposition Yposition Zposition Zrotation Xrotation Yrotation
    JOINT LeftLeg
    {
      OFFSET 43.5 -4.2e-05 0
      CHANNELS 6 Xposition Yposition Zposition Zrotation Xrotation Yrotation
      JOINT LeftFoot
      {
        OFFSET 42.3722 1.9e-05 0
        CHANNELS 6 Xposition Yposition Zposition Zrotation Xrotation Yrotation
        JOINT LeftToe
        {
          OFFSET 17.3 0 0
          CHANNELS 6 Xposition Yposition Zposition Zrotation Xrotation Yrotation
          End Site
          {
            OFFSET 0 0 0
          }
        }
      }
    }
  }
  JOINT RightUpLeg
  {
    OFFSET 0.103456 1.85782 -10.5485
    CHANNELS 6 Xposition Yposition Zposition Zrotation Xrotation Yrotation
    JOINT RightLeg
    {
      OFFSET 43.5 -2.7e-05 0
      CHANNELS 6 Xposition Yposition Zposition Zrotation Xrotation Yrotation
      JOINT RightFoot
      {
        OFFSET 42.3723 0 0
        CHANNELS 6 Xposition Yposition Zposition Zrotation Xrotation Yrotation
        JOINT RightToe
        {
          OFFSET 17.3 0 1.7e-05
          CHANNELS 6 Xposition Yposition Zposition Zrotation Xrotation Yrotation
          End Site
          {
            OFFSET 0 0 0
          }
        }
      }
    }
  }
  JOINT Spine
  {
    OFFSET 6.90197 -2.60373 0
    CHANNELS 6 Xposition Yposition Zposition Zrotation Xrotation Yrotation
    JOINT Spine1
    {
      OFFSET 12.5881 0 0
      CHANNELS 6 Xposition Yposition Zposition Zrotation Xrotation Yrotation
      JOINT Spine2
      {
        OFFSET 12.3432 -1.8e-05 0
        CHANNELS 6 Xposition Yposition Zposition Zrotation Xrotation Yrotation
        JOINT Neck
        {
          OFFSET 25.8329 2.3e-05 0
          CHANNELS 6 Xposition Yposition Zposition Zrotation Xrotation Yrotation
          JOINT Head
          {
            OFFSET 11.7666 0 0
            CHANNELS 6 Xposition Yposition Zposition Zrotation Xrotation Yrotation
            End Site
            {
              OFFSET 0 0 0
            }
          }
        }
        JOINT LeftShoulder
        {
          OFFSET 19.7459 -1.48035 6.0001
          CHANNELS 6 Xposition Yposition Zposition Zrotation Xrotation Yrotation
          JOINT LeftArm
          {
            OFFSET 11.2841 1.8e-05 -2e-05
            CHANNELS 6 Xposition Yposition Zposition Zrotation Xrotation Yrotation
            JOINT LeftForeArm
            {
              OFFSET 33 -1.3e-05 1.9e-05
              CHANNELS 6 Xposition Yposition Zposition Zrotation Xrotation Yrotation
              JOINT LeftHand
              {
                OFFSET 25.2 3.2e-05 1.1e-05
                CHANNELS 6 Xposition Yposition Zposition Zrotation Xrotation Yrotation
                End Site
                {
                  OFFSET 0 0 0
                }
              }
            }
          }
        }
        JOINT RightShoulder
        {
          OFFSET 19.7461 -1.48036 -6.00008
          CHANNELS 6 Xposition Yposition Zposition Zrotation Xrotation Yrotation
          JOINT RightArm
          {
            OFFSET 11.2841 0 0
            CHANNELS 6 Xposition Yposition Zposition Zrotation Xrotation Yrotation
            JOINT RightForeArm
            {
              OFFSET 33.0001 1.6e-05 0
              CHANNELS 6 Xposition Yposition Zposition Zrotation Xrotation Yrotation
              JOINT RightHand
              {
                OFFSET 25.1998 0.000123 0.000432
                CHANNELS 6 Xposition Yposition Zposition Zrotation Xrotation Yrotation
                End Site
                {
                  OFFSET 0 0 0
                }
              }
            }
          }
        }
      }
    }
  }
}
MOTION
Frames:	8
Frame Time:	0.0333333
32.2089 89.4793 -140.114 86.7935 -4.27744 2.43676 0.103456 1.85784 10.5485 9.55282 -4.39792 179.655 43.5 -4.2e-05 1e-05 -0.894953 -13.0083 -3.61131 42.3722 1.9e-05 -1.42109e-14 75.0588 -14.7172 7.18844 17.3 0 3e-06 21.4546 -1e-06 0.003093 0.103456 1.85782 -10.5485 4.4083 9.49344 178.031 43.5 -2.7e-05 4e-06 -9.70672 10.5442 1.41007 42.3723 0 1e-05 81.6156 15.2437 -14.5476 17.3 -6e-06 1.7e-05 21.4546 -1.9e-05 -0.003116 6.90197 -2.60373 -3e-06 7.49801 0.0618761 -0.117989 12.5881 1e-05 8e-06 4.96895 0.170338 -0.220184 12.3432 -1.8e-05 -5e-06 4.64852 0.228835 -0.219004 25.8329 2.3e-05 7e-06 10.0387 -0.976884 -4.06876 11.7666 -8e-06 -6e-06 -26.2082 -9.47988 13.5153 19.7459 -1.48035 6.0001 179.576 9.39137 -100.064 11.2841 1.8e-05 -2e-05 29.774 -32.5431 36.0936 33 -1.3e-05 1.9e-05 -15.415 5.9322 -24.2575 25.2 3.2e-05 1.1e-05 -2.405 29.6968 0.156823 19.7461 -1.48036 -6.00008 -171.158 -6.29394 87.8046 11.2841 0 -1e-06 8.9582 9.64356 -10.6747 33.0001 1.6e-05 -1e-06 -15.4673 -4.08323 21.956 25.1998 0.000123 0.000432 9.60827 -19.0621 8.13004 
32.2152 89.4776 -140.101 86.796 -4.35777 2.42536 0.103456 1.85784 10.5485 9.57815 -4.36471 179.616 43.5 -4.2e-05 1e-05 -0.894521 -13.0255 -3.58399 42.3722 1.9e-05 0 75.0916 -14.6618 7.2399 17.3 7.10543e-15 3e-06 21.4546 -1e-06 0.003093 0.103456 1.85782 -10.5485 4.50928 9.36011 178.013 43.5 -2.7e-05 4e-06 -9.57717 10.6492 1.47692 42.3723 7.10543e-15 1e-05 81.7655 14.7751 -14.539 17.3 -6e-06 1.7e-05 21.4546 -1.9e-05 -0.003116 6.90197 -2.60373 -3e-06 7.49798 0.0507195 -0.109676 12.5881 1e-05 8e-06 4.98098 0.149481 -0.201995 12.3432 -1.8e-05 -5e-06 4.66081 0.20937 -0.199549 25.8329 2.3e-05 7e-06 10.0373 -0.999645 -4.05314 11.7666 -8e-06 -6e-06 -26.0689 -9.53268 13.5437 19.7459 -1.48035 6.0001 179.617 9.34363 -100.078 11.2841 1.8e-05 -2e-05 29.8271 -32.471 36.0944 33 -1.3e-05 1.9e-05 -15.4655 5.87723 -24.2229 25.2 3.2e-05 1.1e-05 -2.33994 29.687 0.128843 19.7461 -1.48036 -6.00008 -171.139 -6.34011 87.8257 11.2841 1.42109e-14 -1e-06 8.86916 9.6089 -10.6131 33.0001 1.6e-05 -1e-06 -15.4224 -4.09068 21.9088 25.1998 0.000123 0.000432 9.6326 -19.0634 8.10024 
32.1897 89.4776 -140.1 86.8085 -4.39395 2.42023 0.103456 1.85784 10.5485 9.51854 -4.38938 179.607 43.5 -4.2e-05 1e-05 -0.99094 -13.0415 -3.57327 42.3722 1.9e-05 -1.42109e-14 75.1469 -14.6651 7.2917 17.3 -7.10543e-15 3e-06 21.4546 -1e-06 0.003093 0.103456 1.85782 -10.5485 4.51473 9.37085 178.005 43.5 -2.7e-05 4e-06 -9.53919 10.6329 1.48235 42.3723 -3.55271e-15 1e-05 81.7323 14.8016 -14.5066 17.3 -6e-06 1.7e-05 21.4546 -1.9e-05 -0.003116 6.90197 -2.60373 -3e-06 7.49252 0.0488668 -0.0996523 12.5881 1e-05 8e-06 4.97003 0.14702 -0.181717 12.3432 -1.8e-05 -5e-06 4.64982 0.207995 -0.179171 25.8329 2.3e-05 7e-06 10.0378 -1.0231 -4.03029 11.7666 -8e-06 -6e-06 -25.9082 -9.57558 13.5651 19.7459 -1.48035 6.0001 179.637 9.32141 -100.045 11.2841 1.8e-05 -2e-05 29.7553 -32.3995 36.0055 33 -1.3e-05 1.9e-05 -15.4925 5.87249 -24.1829 25.2 3.2e-05 1.1e-05 -2.35331 29.6802 0.153823 19.7461 -1.48036 -6.00008 -171.214 -6.32782 87.853 11.2841 0 -1e-06 8.84791 9.69365 -10.5898 33.0001 1.6e-05 -1e-06 -15.3815 -4.07381 21.9039 25.1998 0.000123 0.000432 9.61809 -19.0595 8.11638 
32.1453 89.458 -140.165 86.8177 -4.20731 2.4472 0.103456 1.85784 10.5485 9.5581 -4.39264 179.674 43.5 -4.2e-05 1e-05 -0.955836 -12.9614 -3.59916 42.3722 1.9e-05 0 75.1422 -14.7155 7.16295 17.3 0 3e-06 21.4546 -1e-06 0.003093 0.103456 1.85782 -10.5485 4.9483 9.7142 177.937 43.5 -2.7e-05 4e-06 -8.8019 10.6581 1.50366 42.3723 0 1e-05 81.6162 15.2908 -14.6261 17.3 -6e-06 1.7e-05 21.4546 -1.9e-05 -0.003116 6.90197 -2.60373 -3e-06 7.48022 0.00272914 -0.10909 12.5881 1e-05 8e-06 4.94646 0.0535652 -0.193942 12.3432 -1.8e-05 -5e-06 4.62769 0.113607 -0.18563 25.8329 2.3e-05 7e-06 10.0785 -0.915391 -4.07317 11.7666 -8e-06 -6e-06 -25.7257 -9.5179 13.6964 19.7459 -1.48035 6.0001 179.616 9.29429 -100.133 11.2841 1.8e-05 -2e-05 29.7285 -32.4348 35.8858 33 -1.3e-05 1.9e-05 -15.4231 5.89491 -24.1385 25.2 3.2e-05 1.1e-05 -2.38833 29.7182 0.138943 19.7461 -1.48036 -6.00008 -171.276 -6.29077 87.829 11.2841 -1.42109e-14 -1e-06 8.79045 9.70588 -10.5878 33.0001 1.6e-05 -1e-06 -15.3876 -4.15649 21.8913 25.1998 0.000123 0.000432 9.61822 -19.1057 8.11931 
32.1149 89.4577 -140.16 86.8197 -4.23925 2.44264 0.103456 1.85784 10.5485 9.5803 -4.40105 179.664 43.5 -4.2e-05 1e-05 -0.924928 -12.9718 -3.59195 42.3722 1.9e-05 1.42109e-14 75.1384 -14.7156 7.17391 17.3 0 3e-06 21.4546 -1e-06 0.003093 0.103456 1.85782 -10.5485 4.96907 9.72608 177.924 43.5 -2.7e-05 4e-06 -8.78134 10.6514 1.50706 42.3723 0 1e-05 81.6058 15.3033 -14.6185 17.3 -6e-06 1.7e-05 21.4546 -1.9e-05 -0.003116 6.90197 -2.60373 -3e-06 7.46974 0.00344628 -0.0953059 12.5881 1e-05 8e-06 4.92541 0.0565649 -0.166539 12.3432 -1.8e-05 -5e-06 4.60648 0.117955 -0.158499 25.8329 2.3e-05 7e-06 10.1143 -0.915327 -4.06653 11.7666 -8e-06 -6e-06 -25.5004 -9.50902 13.7148 19.7459 -1.48035 6.0001 179.542 9.27358 -100.132 11.2841 1.8e-05 -2e-05 29.7634 -32.499 35.8808 33 -1.3e-05 1.9e-05 -15.4115 5.88279 -24.1445 25.2 3.2e-05 1.1e-05 -2.39475 29.7199 0.127432 19.7461 -1.48036 -6.00008 -171.325 -6.23625 87.8312 11.2841 0 -1e-06 8.72617 9.63573 -10.4644 33.0001 1.6e-05 -1e-06 -15.368 -4.17669 21.8554 25.1998 0.000123 0.000432 9.6509 -19.1381 8.13937 
32.0942 89.458 -140.152 86.8193 -4.26831 2.43846 0.103456 1.85784 10.5485 9.61561 -4.39501 179.649 43.5 -4.2e-05 1e-05 -0.892211 -12.998 -3.58385 42.3722 1.9e-05 1.42109e-14 75.1318 -14.6846 7.19732 17.3 -7.10543e-15 3e-06 21.4546 -1e-06 0.003093 0.103456 1.85782 -10.5485 4.98659 9.72041 177.91 43.5 -2.7e-05 4e-06 -8.78045 10.6516 1.51401 42.3723 0 1e-05 81.6086 15.3073 -14.6045 17.3 -6e-06 1.7e-05 21.4546 -1.9e-05 -0.003116 6.90197 -2.60373 -3e-06 7.45979 -0.000906018 -0.0819652 12.5881 1e-05 8e-06 4.90555 0.0497056 -0.139361 12.3432 -1.8e-05 -5e-06 4.58664 0.112487 -0.130972 25.8329 2.3e-05 7e-06 10.1499 -0.957015 -4.03082 11.7666 -8e-06 -6e-06 -25.2621 -9.5566 13.7216 19.7459 -1.48035 6.0001 179.45 9.22673 -100.098 11.2841 1.8e-05 -2e-05 29.7449 -32.539 35.8116 33 -1.3e-05 1.9e-05 -15.374 5.93677 -24.1416 25.2 3.2e-05 1.1e-05 -2.38872 29.7593 0.129661 19.7461 -1.48036 -6.00008 -171.385 -6.18927 87.8381 11.2841 0 -1e-06 8.6686 9.61082 -10.3621 33.0001 1.6e-05 -1e-06 -15.3937 -4.20513 21.8509 25.1998 0.000123 0.000432 9.65888 -19.1699 8.16727 
32.0901 89.4586 -140.141 86.818 -4.29696 2.43489 0.103456 1.85784 10.5485 9.58302 -4.37869 179.625 43.5 -4.2e-05 1e-05 -1.01394 -12.9967 -3.57712 42.3722 1.9e-05 0 75.1853 -14.6753 7.19806 17.3 0 3e-06 21.4546 -1e-06 0.003093 0.103456 1.85782 -10.5485 4.99767 9.73376 177.896 43.5 -2.7e-05 4e-06 -8.80084 10.6534 1.52921 42.3723 3.55271e-15 1e-05 81.624 15.3074 -14.592 17.3 -6e-06 1.7e-05 21.4546 -1.9e-05 -0.003116 6.90197 -2.60373 -3e-06 7.45136 -0.0148947 -0.0653748 12.5881 1e-05 8e-06 4.88888 0.0238907 -0.104254 12.3432 -1.8e-05 -5e-06 4.57024 0.0886751 -0.0943685 25.8329 2.3e-05 7e-06 10.1793 -1.06435 -3.97288 11.7666 -8e-06 -6e-06 -24.9859 -9.67237 13.7085 19.7459 -1.48035 6.0001 179.393 9.14888 -100.081 11.2841 1.8e-05 -2e-05 29.8092 -32.5347 35.807 33 -1.3e-05 1.9e-05 -15.3948 5.9229 -24.1308 25.2 3.2e-05 1.1e-05 -2.32396 29.7765 0.108611 19.7461 -1.48036 -6.00008 -171.444 -6.1864 87.8569 11.2841 1.42109e-14 -1e-06 8.60653 9.6277 -10.2501 33.0001 1.6e-05 -1e-06 -15.4552 -4.24594 21.8631 25.1998 0.000123 0.000432 9.6288 -19.1907 8.16065 
32.0861 89.4601 -140.131 86.8164 -4.32188 2.43069 0.103456 1.85784 10.5485 9.61665 -4.35073 179.616 43.5 -4.2e-05 1e-05 -0.989589 -12.9983 -3.57505 42.3722 1.9e-05 -1.42109e-14 75.1753 -14.6484 7.20076 17.3 -7.10543e-15 3e-06 21.4546 -1e-06 0.003093 0.103456 1.85782 -10.5485 4.98157 9.76785 177.899 43.5 -2.7e-05 4e-06 -8.86275 10.6532 1.52959 42.3723 -3.55271e-15 1e-05 81.6566 15.3149 -14.5981 17.3 -6e-06 1.7e-05 21.4546 -1.9e-05 -0.003116 6.90197 -2.60373 -3e-06 7.45082 -0.0342793 -0.0495626 12.5881 1e-05 8e-06 4.88811 -0.0126222 -0.0699215 12.3432 -1.8e-05 -5e-06 4.56988 0.0543429 -0.0578435 25.8329 2.3e-05 7e-06 10.1818 -1.19778 -3.89755 11.7666 -8e-06 -6e-06 -24.6621 -9.82766 13.6833 19.7459 -1.48035 6.0001 179.342 9.04436 -100.011 11.2841 1.8e-05 -2e-05 29.7961 -32.4788 35.768 33 -1.3e-05 1.9e-05 -15.4102 5.99644 -24.1204 25.2 3.2e-05 1.1e-05 -2.33209 29.8113 0.116151 19.7461 -1.48036 -6.00008 -171.509 -6.18854 87.8275 11.2841 0 -1e-06 8.50591 9.59926 -10.1132 33.0001 1.6e-05 -1e-06 -15.5417 -4.3102 21.9104 25.1998 0.000123 0.000432 9.59837 -19.2349 8.18552 
